:SAMPLES-PER-SECOND 30
:FULLY-SPECIFIED
:DEGREES
437
root  -62.223 38.1066 -19.3231 31.5 -0.959824 1.19849
RightUpLeg  -66.7365 -24.1486 23.1217
RightLeg  31.3584 -2.12045 -1.64318
RightFoot  -4.02607 0.572661 -9.35481
RightToes  0.00048216 0.542163 -0.142577
Spine  67.6496 -5.01966 6.81552
Spine1  10.7136 0.908459 -4.85453
HEad  -31.356 -1.58094 -0.709053
LeftShoulder1  7.29174 -24.6104 -19.2807
LeftArm  -81.3334 -76.6483 36.4598
LeftForeArm  22.5484 -1.36109 -3.89531
LeftHand  -0.25398 0.0180481 5.50724
RightShoulder  3.25612 11.8658 14.3255
RightArm  -71.1433 73.8986 -16.6296
RightForeArm  -23.3648 7.1976 4.78026
RightHand  -5.43597 14.3066 -31.6909
LeftUpLeg  -68.4023 28.0856 -28.9264
LeftLeg  27.2687 -1.66306 -0.588668
LeftFoot  -0.127822 -0.697287 7.10144
LeftToes  1.06246e-005 4.65855e-005 -8.185e-006
438
root  -62.0629 38.4035 -19.3468 29.8315 -1.3038 1.10155
RightUpLeg  -63.7699 -24.9316 22.1756
RightLeg  29.132 -1.6129 -1.21427
RightFoot  -2.9066 0.638784 -8.90023
RightToes  0.00048216 0.542163 -0.142577
Spine  66.8995 -5.12973 6.84232
Spine1  11.1234 0.771774 -4.62084
HEad  -30.8495 -1.7114 -1.23691
LeftShoulder1  7.45634 -24.2351 -20.2963
LeftArm  -66.2066 -76.2564 21.0893
LeftForeArm  23.3333 -0.728572 -4.21679
LeftHand  -0.25398 0.0180481 5.50724
RightShoulder  3.47607 12.2854 15.2343
RightArm  -60.625 74.2516 -5.43414
RightForeArm  -21.9568 7.90986 5.3163
RightHand  -5.09831 13.6674 -30.777
LeftUpLeg  -65.3309 28.8285 -27.9463
LeftLeg  25.1236 -1.31423 -0.334568
LeftFoot  0.568259 -0.739199 7.04567
LeftToes  1.06246e-005 4.65855e-005 -8.185e-006
439
root  -61.8764 38.6983 -19.3545 27.9594 -1.83916 0.992035
RightUpLeg  -60.5104 -25.7086 21.0688
RightLeg  26.8614 -0.973123 -0.769345
RightFoot  -1.74852 0.708433 -8.55947
RightToes  0.00048216 0.542163 -0.142577
Spine  66.0797 -5.05095 6.87381
Spine1  11.5575 0.751168 -4.20971
HEad  -30.826 -1.33036 -1.79787
LeftShoulder1  7.83902 -24.1852 -21.814
LeftArm  -51.0968 -74.1831 5.07009
LeftForeArm  22.9293 -0.476812 -4.2618
LeftHand  -0.25398 0.0180481 5.50724
RightShoulder  3.6669 12.5775 16.0945
RightArm  -48.6316 73.4635 6.69856
RightForeArm  -20.1398 8.36554 5.88249
RightHand  -4.70014 12.8706 -29.6833
LeftUpLeg  -61.7998 29.4269 -26.5155
LeftLeg  22.9466 -0.549973 0.0802624
LeftFoot  1.19374 -0.766257 6.90111
LeftToes  1.06246e-005 4.65855e-005 -8.185e-006
440
root  -61.6565 38.9756 -19.3418 25.9859 -2.46098 0.905579
RightUpLeg  -57.1397 -26.5259 19.8223
RightLeg  24.655 -0.28247 -0.36905
RightFoot  -0.671566 0.746812 -8.02762
RightToes  0.00048216 0.542163 -0.142577
Spine  65.2262 -4.88616 6.96851
Spine1  11.7874 0.779184 -3.66636
HEad  -30.5148 -1.49379 -2.29704
LeftShoulder1  8.4122 -24.4462 -23.6926
LeftArm  -39.6263 -70.1877 -7.52177
LeftForeArm  21.663 -0.526368 -4.13463
LeftHand  -0.25398 0.0180481 5.50724
RightShoulder  3.78531 12.4379 17.1213
RightArm  -36.9824 71.8063 18.4866
RightForeArm  -17.9524 8.4988 6.38767
RightHand  -4.45706 12.319 -29.0638
LeftUpLeg  -58.0973 29.906 -24.9625
LeftLeg  20.9276 0.409178 0.513378
LeftFoot  1.64287 -0.809044 7.01179
LeftToes  1.06246e-005 4.65855e-005 -8.185e-006
441
root  -61.405 39.2288 -19.3107 23.956 -3.1192 0.899307
RightUpLeg  -53.7543 -27.3797 18.3846
RightLeg  22.6078 0.479585 -0.0168184
RightFoot  0.323457 0.740786 -7.21547
RightToes  0.00048216 0.542163 -0.142577
Spine  64.3615 -4.76456 7.07635
Spine1  11.7547 0.789444 -3.20626
HEad  -29.9504 -1.93853 -2.92031
LeftShoulder1  9.00226 -24.5506 -25.77
LeftArm  -32.0348 -64.935 -16.2073
LeftForeArm  20.9932 -0.75768 -3.96305
LeftHand  -0.25398 0.0180481 5.50724
RightShoulder  3.93285 12.2651 18.4141
RightArm  -27.5674 68.9883 27.8377
RightForeArm  -16.4375 8.57166 6.87401
RightHand  -4.4606 12.2247 -29.2287
LeftUpLeg  -54.2837 30.1241 -23.2496
LeftLeg  19.156 1.73144 0.95486
LeftFoot  1.99918 -0.837607 7.05005
LeftToes  1.06246e-005 4.65855e-005 -8.185e-006
442
root  -61.1251 39.4507 -19.2602 21.8807 -3.86559 0.963409
RightUpLeg  -50.3085 -28.0032 16.5384
RightLeg  20.8382 1.10238 0.327304
RightFoot  1.2273 0.714258 -6.39671
RightToes  0.00048216 0.542163 -0.142577
Spine  63.4078 -4.57076 7.14883
Spine1  11.6466 0.814049 -2.69792
HEad  -29.7069 -1.80828 -3.71479
LeftShoulder1  9.64656 -24.3357 -28.4153
LeftArm  -27.0707 -59.1702 -21.571
LeftForeArm  21.5592 -1.04999 -3.96584
LeftHand  -0.25398 0.0180481 5.50724
RightShoulder  4.19395 12.3988 19.9558
RightArm  -21.4756 65.0655 32.9444
RightForeArm  -15.9988 8.67717 7.41069
RightHand  -4.50386 12.196 -29.5419
LeftUpLeg  -50.1172 29.5623 -20.719
LeftLeg  17.7592 4.00732 1.36768
LeftFoot  2.35837 -0.794091 6.48502
LeftToes  1.06246e-005 4.65855e-005 -8.185e-006
